# xmcd
# 
# Track frame offsets:
#     150
#     22140
#     38017
#     55937
#     71342
#     91340
#     113950
#     137397
#     159380
# 
# Disc length: 2462
# 
# Revision: 2
# Processed by: cddbd v1.5.2PL0 Copyright (c) Steve Scherf et al.
# Submitted via: BonkEnc v1.0.8
# 
DISCID=6e099c09
DTITLE=越美晴 - パラレリズム
DYEAR=1994
DGENRE=
TTITLE0=龍宮城の恋人
TTITLE1=Capricious Salad
TTITLE2=IMAGE
TTITLE3=サン・タマンの森で
TTITLE4=メフィストフェレスを探せ!
TTITLE5=逃亡者
TTITLE6=パラレリズム
TTITLE7=Decadance 120
TTITLE8=薔薇の夜会
EXTD=
EXTT0=
EXTT1=
EXTT2=
EXTT3=
EXTT4=
EXTT5=
EXTT6=
EXTT7=
EXTT8=
PLAYORDER=
